# xmcd
#
# Track frame offsets:
#	150
#	23820
#	40835
#	61531
#	79767
#	95105
#	111301
#	131833
#	151390
#	170642
#	187295
#	205946
#	230044
#	248243
#	266396
#	290219
#	307991
#	328714
#
# Disc length: 4686 seconds
#
# Revision: 1
# Processed by: cddbd v1.5.1PL0 Copyright (c) Steve Scherf et al.
# Submitted via: audiograbber 1.83.01
#
DISCID=0b124c12
DTITLE=Joe Cocker - Heart and Soul
DYEAR=2004
DGENRE=Soul
TTITLE0=What's Going On
TTITLE1=Chain Of Fools
TTITLE2=One
TTITLE3=I Who Have Nothing
TTITLE4=Maybe I'm Amazed
TTITLE5=I Keep Forgetting
TTITLE6=I Put A Spell On You
TTITLE7=Every Kind Of People
TTITLE8=Love Don't Live Here Anymore
TTITLE9=Don't Let Me Be Lonely
TTITLE10=Jealous Guy
TTITLE11=Everybody Hurts
TTITLE12=You Can't Have My Heart
TTITLE13=Never Tear Us Apart
TTITLE14=Respect Yourself
TTITLE15=It's Only Love
TTITLE16=Leave A Light On
TTITLE17=Midnight Without You
EXTD=
EXTT0=
EXTT1=
EXTT2=
EXTT3=
EXTT4=
EXTT5=
EXTT6=
EXTT7=
EXTT8=
EXTT9=
EXTT10=
EXTT11=
EXTT12=
EXTT13=
EXTT14=
EXTT15=
EXTT16=
EXTT17=
PLAYORDER=
